name rise49.5252peak65.1548fall88.8305.mot
datacolumns 19
datarows 23
range 14.92493800000000 14.96160100000000
endheader
time	ground_force1_vx	ground_force1_vy	ground_force1_vz	ground_force1_px	ground_force1_py	ground_force1_pz	ground_force2_vx	ground_force2_vy	ground_force2_vz	ground_force2_px	ground_force2_py	ground_force2_pz	ground_torque1_x	ground_torque1_y	ground_torque1_z	ground_torque2_x	ground_torque2_y	ground_torque2_z	
14.92493800000000	-49.00303500000000	798.76070500000003	62.90475300000000	0.18222100000000	0.00000000000000	0.12053000000000	-12.11391300000000	68.35437800000000	12.57742600000000	0.43371600000000	0.00000000000000	-0.05673400000000	0.00000000000000	33.98508900000000	0.00000000000000	0.00000000000000	10.09356000000000	0.00000000000000	
14.92660700000000	-49.00929000000000	795.94444899999996	62.68201600000000	0.18181700000000	0.00000000000000	0.12053500000000	-12.30479000000000	73.71952700000000	13.12609400000000	0.43556100000000	0.00000000000000	-0.05712700000000	0.00000000000000	33.81244200000000	0.00000000000000	0.00000000000000	10.60024300000000	0.00000000000000	
14.92827300000000	-49.02951500000000	793.01076799999998	62.43239800000000	0.18141500000000	0.00000000000000	0.12053500000000	-12.33429900000000	78.85720300000000	13.55843500000000	0.43730600000000	0.00000000000000	-0.05751100000000	0.00000000000000	33.63560100000000	0.00000000000000	0.00000000000000	11.02074900000000	0.00000000000000	
14.92993500000000	-49.06455300000000	789.96026900000004	62.15575400000000	0.18101400000000	0.00000000000000	0.12053100000000	-12.21586500000000	83.79671000000000	13.88328200000000	0.43896100000000	0.00000000000000	-0.05788500000000	0.00000000000000	33.45477400000000	0.00000000000000	0.00000000000000	11.36112800000000	0.00000000000000	
14.93160900000000	-49.11519400000000	786.79356099999995	61.85199100000000	0.18061500000000	0.00000000000000	0.12052200000000	-11.96623900000000	88.58077299999999	14.11250800000000	0.44053900000000	0.00000000000000	-0.05825100000000	0.00000000000000	33.27016900000000	0.00000000000000	0.00000000000000	11.62992400000000	0.00000000000000	
14.93326900000000	-49.18217200000000	783.51124500000003	61.52106700000000	0.18021700000000	0.00000000000000	0.12050800000000	-11.60381200000000	93.26034300000001	14.25965300000000	0.44204500000000	0.00000000000000	-0.05861000000000	0.00000000000000	33.08199300000000	0.00000000000000	0.00000000000000	11.83712000000000	0.00000000000000	
14.93493900000000	-49.26615700000000	780.11391400000002	61.16299300000000	0.17982100000000	0.00000000000000	0.12049000000000	-11.14708200000000	97.88961900000000	14.33865900000000	0.44348900000000	0.00000000000000	-0.05896100000000	0.00000000000000	32.89045300000000	0.00000000000000	0.00000000000000	11.99315300000000	0.00000000000000	
14.93660000000000	-49.36775700000000	776.60214299999996	60.77783100000000	0.17942500000000	0.00000000000000	0.12046600000000	-10.61337400000000	102.52165200000000	14.36278700000000	0.44487600000000	0.00000000000000	-0.05930600000000	0.00000000000000	32.69575300000000	0.00000000000000	0.00000000000000	12.10805700000000	0.00000000000000	
14.93827400000000	-49.48751000000000	772.97648500000003	60.36569500000000	0.17903100000000	0.00000000000000	0.12043700000000	-10.01787000000000	107.20478100000000	14.34377300000000	0.44621000000000	0.00000000000000	-0.05964600000000	0.00000000000000	32.49809100000000	0.00000000000000	0.00000000000000	12.19078900000000	0.00000000000000	
14.93994100000000	-49.62588000000000	769.23746700000004	59.92675100000000	0.17863900000000	0.00000000000000	0.12040200000000	-9.37296900000000	111.98002000000000	14.29124500000000	0.44749800000000	0.00000000000000	-0.05998000000000	0.00000000000000	32.29766300000000	0.00000000000000	0.00000000000000	12.24874800000000	0.00000000000000	
14.94160800000000	-49.78325200000000	765.38558499999999	59.46121500000000	0.17824700000000	0.00000000000000	0.12036200000000	-8.68796500000000	116.87943400000000	14.21240200000000	0.44874200000000	0.00000000000000	-0.06030800000000	0.00000000000000	32.09465700000000	0.00000000000000	0.00000000000000	12.28750300000000	0.00000000000000	
14.94327400000000	-49.95993300000000	761.42130299999997	58.96935200000000	0.17785600000000	0.00000000000000	0.12031700000000	-7.96902100000000	121.92544800000000	14.11192800000000	0.44994500000000	0.00000000000000	-0.06063200000000	0.00000000000000	31.88925600000000	0.00000000000000	0.00000000000000	12.31070300000000	0.00000000000000	
14.94494100000000	-50.15614300000000	757.34504400000003	58.45147600000000	0.17746700000000	0.00000000000000	0.12026600000000	-7.21937500000000	127.13097600000000	13.99211800000000	0.45111100000000	0.00000000000000	-0.06095000000000	0.00000000000000	31.68163200000000	0.00000000000000	0.00000000000000	12.32014500000000	0.00000000000000	
14.94660100000000	-50.37201400000000	753.15719300000001	57.90795200000000	0.17707900000000	0.00000000000000	0.12021000000000	-6.43972900000000	132.50020200000000	13.85314600000000	0.45224100000000	0.00000000000000	-0.06126500000000	0.00000000000000	31.47194800000000	0.00000000000000	0.00000000000000	12.31597100000000	0.00000000000000	
14.94826800000000	-50.60758600000000	748.85809200000006	57.33918800000000	0.17669100000000	0.00000000000000	0.12014800000000	-5.62875200000000	138.02984400000000	13.69345500000000	0.45333800000000	0.00000000000000	-0.06157500000000	0.00000000000000	31.26035900000000	0.00000000000000	0.00000000000000	12.29695600000000	0.00000000000000	
14.94994200000000	-50.86280400000000	744.44803899999999	56.74563800000000	0.17630500000000	0.00000000000000	0.12008100000000	-4.78364900000000	143.71070399999999	13.51019600000000	0.45440300000000	0.00000000000000	-0.06188100000000	0.00000000000000	31.04700600000000	0.00000000000000	0.00000000000000	12.26083800000000	0.00000000000000	
14.95160200000000	-51.13751600000000	739.92728299999999	56.12780100000000	0.17591900000000	0.00000000000000	0.12000700000000	-3.90073000000000	149.52935500000001	13.29968700000000	0.45543700000000	0.00000000000000	-0.06218200000000	0.00000000000000	30.83201700000000	0.00000000000000	0.00000000000000	12.20467800000000	0.00000000000000	
14.95327100000000	-51.43146800000000	735.29603099999997	55.48622000000000	0.17553500000000	0.00000000000000	0.11992800000000	-2.97594100000000	155.46979300000001	13.05785500000000	0.45644000000000	0.00000000000000	-0.06248000000000	0.00000000000000	30.61550900000000	0.00000000000000	0.00000000000000	12.12519200000000	0.00000000000000	
14.95494000000000	-51.74430400000000	730.55443900000000	54.82147600000000	0.17515100000000	0.00000000000000	0.11984400000000	-2.00532800000000	161.51495800000001	12.78061700000000	0.45741400000000	0.00000000000000	-0.06277400000000	0.00000000000000	30.39758400000000	0.00000000000000	0.00000000000000	12.01906600000000	0.00000000000000	
14.95660100000000	-52.07556500000000	725.70261800000003	54.13419000000000	0.17476800000000	0.00000000000000	0.11975300000000	-0.98541300000000	167.64802000000000	12.46420900000000	0.45835900000000	0.00000000000000	-0.06306400000000	0.00000000000000	30.17832800000000	0.00000000000000	0.00000000000000	11.88320100000000	0.00000000000000	
14.95827300000000	-52.42468400000000	720.74063300000000	53.42502100000000	0.17438500000000	0.00000000000000	0.11965700000000	0.08653900000000	173.85339700000000	12.10541900000000	0.45927400000000	0.00000000000000	-0.06335000000000	0.00000000000000	29.95781200000000	0.00000000000000	0.00000000000000	11.71491600000000	0.00000000000000	
14.95993500000000	-52.79098800000000	715.66850499999998	52.69466500000000	0.17400300000000	0.00000000000000	0.11955600000000	1.21234500000000	180.11746900000000	11.70175800000000	0.46016100000000	0.00000000000000	-0.06363200000000	0.00000000000000	29.73609100000000	0.00000000000000	0.00000000000000	11.51208000000000	0.00000000000000	
14.96160100000000	-53.17369300000000	710.48621100000003	51.94385000000000	0.17362100000000	0.00000000000000	0.11944900000000	2.39283000000000	186.42901000000001	11.25153700000000	0.46101900000000	0.00000000000000	-0.06391100000000	0.00000000000000	29.51320500000000	0.00000000000000	0.00000000000000	11.27318000000000	0.00000000000000	
